# xmcd
#
# Track frame offsets: 
#        150
#        11141
#        28456
#        43398
#        63352
#        87714
#
# Disc length: 1443 seconds
#
# Revision: 0
# Processed by: cddbd v1.5.2PL0 Copyright (c) Steve Scherf et al.
# Submitted via: ExactAudioCopy v0.99pb4
#
DISCID=5705a106
DTITLE=Workhorse - The EP
DYEAR=2010
DGENRE=Metal
TTITLE0=The Station
TTITLE1=Seven Circles
TTITLE2=Slave
TTITLE3=Farewell
TTITLE4=The Eye
TTITLE5=End Line
EXTD=
EXTT0=
EXTT1=
EXTT2=
EXTT3=
EXTT4=
EXTT5=
PLAYORDER=
